<mxfile host="app.diagrams.net" modified="2021-06-16T07:11:08.952Z" agent="5.0 (Macintosh; Intel Mac OS X 10_14_6) AppleWebKit/537.36 (KHTML, like Gecko) Chrome/90.0.4430.85 Safari/537.36" etag="ubFYNBJgCKHYnB3TKAk6" version="14.7.9" type="github">
  <diagram id="0Bd6htcTqXFndmyRb5fi" name="Page-1">
    <mxGraphModel dx="1773" dy="516" grid="1" gridSize="10" guides="1" tooltips="1" connect="1" arrows="1" fold="1" page="1" pageScale="1" pageWidth="827" pageHeight="1169" math="0" shadow="0">
      <root>
        <mxCell id="0" />
        <mxCell id="1" parent="0" />
        <mxCell id="0ehNZkJ0RxpbpAb613jR-6" value="" style="rounded=0;orthogonalLoop=1;jettySize=auto;html=1;entryX=0.75;entryY=0;entryDx=0;entryDy=0;exitX=0.25;exitY=1;exitDx=0;exitDy=0;" edge="1" parent="1" source="0ehNZkJ0RxpbpAb613jR-1" target="0ehNZkJ0RxpbpAb613jR-2">
          <mxGeometry relative="1" as="geometry" />
        </mxCell>
        <mxCell id="0ehNZkJ0RxpbpAb613jR-16" style="edgeStyle=none;rounded=0;orthogonalLoop=1;jettySize=auto;html=1;entryX=0.5;entryY=0;entryDx=0;entryDy=0;" edge="1" parent="1" source="0ehNZkJ0RxpbpAb613jR-1" target="0ehNZkJ0RxpbpAb613jR-8">
          <mxGeometry relative="1" as="geometry" />
        </mxCell>
        <mxCell id="0ehNZkJ0RxpbpAb613jR-1" value="atlas" style="rounded=0;whiteSpace=wrap;html=1;" vertex="1" parent="1">
          <mxGeometry x="220" y="30" width="120" height="60" as="geometry" />
        </mxCell>
        <mxCell id="0ehNZkJ0RxpbpAb613jR-12" value="" style="edgeStyle=orthogonalEdgeStyle;rounded=0;orthogonalLoop=1;jettySize=auto;html=1;" edge="1" parent="1" source="0ehNZkJ0RxpbpAb613jR-2" target="0ehNZkJ0RxpbpAb613jR-11">
          <mxGeometry relative="1" as="geometry">
            <Array as="points">
              <mxPoint x="90" y="220" />
              <mxPoint x="90" y="220" />
            </Array>
          </mxGeometry>
        </mxCell>
        <mxCell id="0ehNZkJ0RxpbpAb613jR-17" style="edgeStyle=none;rounded=0;orthogonalLoop=1;jettySize=auto;html=1;entryX=0.133;entryY=1;entryDx=0;entryDy=0;entryPerimeter=0;" edge="1" parent="1" source="0ehNZkJ0RxpbpAb613jR-2" target="0ehNZkJ0RxpbpAb613jR-1">
          <mxGeometry relative="1" as="geometry" />
        </mxCell>
        <mxCell id="0ehNZkJ0RxpbpAb613jR-20" style="edgeStyle=none;rounded=0;orthogonalLoop=1;jettySize=auto;html=1;entryX=0.575;entryY=-0.017;entryDx=0;entryDy=0;entryPerimeter=0;" edge="1" parent="1" source="0ehNZkJ0RxpbpAb613jR-2" target="0ehNZkJ0RxpbpAb613jR-9">
          <mxGeometry relative="1" as="geometry" />
        </mxCell>
        <mxCell id="0ehNZkJ0RxpbpAb613jR-22" style="edgeStyle=none;rounded=0;orthogonalLoop=1;jettySize=auto;html=1;entryX=0.5;entryY=0;entryDx=0;entryDy=0;exitX=0.842;exitY=1.017;exitDx=0;exitDy=0;exitPerimeter=0;" edge="1" parent="1" source="0ehNZkJ0RxpbpAb613jR-2" target="0ehNZkJ0RxpbpAb613jR-15">
          <mxGeometry relative="1" as="geometry" />
        </mxCell>
        <mxCell id="0ehNZkJ0RxpbpAb613jR-23" style="edgeStyle=none;rounded=0;orthogonalLoop=1;jettySize=auto;html=1;entryX=0.333;entryY=0;entryDx=0;entryDy=0;entryPerimeter=0;exitX=0.683;exitY=1.017;exitDx=0;exitDy=0;exitPerimeter=0;" edge="1" parent="1" source="0ehNZkJ0RxpbpAb613jR-2" target="0ehNZkJ0RxpbpAb613jR-15">
          <mxGeometry relative="1" as="geometry">
            <mxPoint x="250" y="310" as="targetPoint" />
          </mxGeometry>
        </mxCell>
        <mxCell id="0ehNZkJ0RxpbpAb613jR-26" style="edgeStyle=none;rounded=0;orthogonalLoop=1;jettySize=auto;html=1;entryX=0;entryY=0.5;entryDx=0;entryDy=0;" edge="1" parent="1" source="0ehNZkJ0RxpbpAb613jR-2" target="0ehNZkJ0RxpbpAb613jR-8">
          <mxGeometry relative="1" as="geometry" />
        </mxCell>
        <mxCell id="0ehNZkJ0RxpbpAb613jR-2" value="apollo" style="rounded=0;whiteSpace=wrap;html=1;" vertex="1" parent="1">
          <mxGeometry x="130" y="180" width="120" height="60" as="geometry" />
        </mxCell>
        <mxCell id="0ehNZkJ0RxpbpAb613jR-18" style="edgeStyle=none;rounded=0;orthogonalLoop=1;jettySize=auto;html=1;" edge="1" parent="1">
          <mxGeometry relative="1" as="geometry">
            <mxPoint x="360" y="175" as="sourcePoint" />
            <mxPoint x="310" y="93" as="targetPoint" />
          </mxGeometry>
        </mxCell>
        <mxCell id="0ehNZkJ0RxpbpAb613jR-27" style="edgeStyle=none;rounded=0;orthogonalLoop=1;jettySize=auto;html=1;exitX=-0.025;exitY=0.383;exitDx=0;exitDy=0;exitPerimeter=0;" edge="1" parent="1" source="0ehNZkJ0RxpbpAb613jR-8">
          <mxGeometry relative="1" as="geometry">
            <mxPoint x="250" y="200" as="targetPoint" />
          </mxGeometry>
        </mxCell>
        <mxCell id="0ehNZkJ0RxpbpAb613jR-8" value="pangu" style="rounded=0;whiteSpace=wrap;html=1;" vertex="1" parent="1">
          <mxGeometry x="290" y="180" width="120" height="60" as="geometry" />
        </mxCell>
        <mxCell id="0ehNZkJ0RxpbpAb613jR-21" style="edgeStyle=none;rounded=0;orthogonalLoop=1;jettySize=auto;html=1;entryX=0.158;entryY=1;entryDx=0;entryDy=0;entryPerimeter=0;exitX=0.408;exitY=-0.017;exitDx=0;exitDy=0;exitPerimeter=0;" edge="1" parent="1" source="0ehNZkJ0RxpbpAb613jR-9" target="0ehNZkJ0RxpbpAb613jR-2">
          <mxGeometry relative="1" as="geometry" />
        </mxCell>
        <mxCell id="0ehNZkJ0RxpbpAb613jR-9" value="oceanus" style="rounded=0;whiteSpace=wrap;html=1;" vertex="1" parent="1">
          <mxGeometry x="50" y="320" width="120" height="60" as="geometry" />
        </mxCell>
        <mxCell id="0ehNZkJ0RxpbpAb613jR-19" style="edgeStyle=none;rounded=0;orthogonalLoop=1;jettySize=auto;html=1;entryX=0;entryY=0.5;entryDx=0;entryDy=0;" edge="1" parent="1" source="0ehNZkJ0RxpbpAb613jR-11" target="0ehNZkJ0RxpbpAb613jR-2">
          <mxGeometry relative="1" as="geometry" />
        </mxCell>
        <mxCell id="0ehNZkJ0RxpbpAb613jR-11" value="audit" style="rounded=0;whiteSpace=wrap;html=1;" vertex="1" parent="1">
          <mxGeometry x="-70" y="180" width="120" height="60" as="geometry" />
        </mxCell>
        <mxCell id="0ehNZkJ0RxpbpAb613jR-15" value="bizlog" style="rounded=0;whiteSpace=wrap;html=1;" vertex="1" parent="1">
          <mxGeometry x="210" y="320" width="120" height="60" as="geometry" />
        </mxCell>
        <mxCell id="0ehNZkJ0RxpbpAb613jR-24" value="&lt;br&gt;关键词/小程序组件/日志" style="text;html=1;align=center;verticalAlign=middle;resizable=0;points=[];autosize=1;strokeColor=none;" vertex="1" parent="1">
          <mxGeometry x="120" y="115" width="140" height="30" as="geometry" />
        </mxCell>
        <mxCell id="0ehNZkJ0RxpbpAb613jR-25" value="&lt;br&gt;写小程序组件/日志" style="text;html=1;align=center;verticalAlign=middle;resizable=0;points=[];autosize=1;strokeColor=none;" vertex="1" parent="1">
          <mxGeometry x="340" y="110" width="110" height="30" as="geometry" />
        </mxCell>
        <mxCell id="0ehNZkJ0RxpbpAb613jR-28" value="审核" style="text;html=1;align=center;verticalAlign=middle;resizable=0;points=[];autosize=1;strokeColor=none;" vertex="1" parent="1">
          <mxGeometry x="60" y="190" width="40" height="20" as="geometry" />
        </mxCell>
        <mxCell id="0ehNZkJ0RxpbpAb613jR-29" value="报告" style="text;html=1;align=center;verticalAlign=middle;resizable=0;points=[];autosize=1;strokeColor=none;" vertex="1" parent="1">
          <mxGeometry x="90" y="260" width="40" height="20" as="geometry" />
        </mxCell>
        <mxCell id="0ehNZkJ0RxpbpAb613jR-30" value="日志" style="text;html=1;align=center;verticalAlign=middle;resizable=0;points=[];autosize=1;strokeColor=none;" vertex="1" parent="1">
          <mxGeometry x="240" y="270" width="40" height="20" as="geometry" />
        </mxCell>
      </root>
    </mxGraphModel>
  </diagram>
</mxfile>
